<svg xmlns="http://www.w3.org/2000/svg" viewBox="0 0 979.67 870.19">
        <path fill="#ffb548" d="M1965.57,486.91H1423.86a163.61,163.61,0,0,0-114.61,46.71h14.16a154.06,154.06,0,0,1,100.45-37.11h541.71c85.28,0,154.66,69.38,154.66,154.61v541.76c0,85.23-69.38,154.61-154.66,154.61H1423.86c-85.28,0-154.66-69.38-154.66-154.61V668.45h-9.6v524.43c0,90.56,73.7,164.21,164.26,164.21h541.71c90.56,0,164.27-73.65,164.27-164.21V651.12C2129.84,560.56,2056.13,486.91,1965.57,486.91Z" transform="translate(-1150.16 -486.91)" />
        <path fill="#ffb548" d="M1594.74,1283.21a157.35,157.35,0,0,1-90.7-116.87V726.08a154.05,154.05,0,0,1,25.11-6.05,152,152,0,0,1,24.49-1.92,158.82,158.82,0,0,1,46.82,7.06v414.52a58.66,58.66,0,0,0,58.67,58.63,44.56,44.56,0,0,0,4.47-.2,58.59,58.59,0,0,0,54.16-58.43,160.89,160.89,0,0,1,1.1-18.73V726a158.26,158.26,0,0,1,96.47-.77v414.43h1.1a58.65,58.65,0,0,0,117.3,0H1936V725.17a159.35,159.35,0,0,1,64.82-6,156.57,156.57,0,0,1,31.6,7v413.61a157.26,157.26,0,0,1-265.29,114.37,158,158,0,0,1-48.26,31.16,155.29,155.29,0,0,1-57.42,11.72h-.24s0,0-.1,0h-2a157.78,157.78,0,0,1-58.67-11.29" transform="translate(-1150.16 -486.91)" />
        <path fill="#ffb548" d="M2035.14,604.94a207.32,207.32,0,0,1-4.75,44.32H1453.58V1148a157.47,157.47,0,0,0,109.09,149.76,157,157,0,0,1-48.21,7.54c-3.51,0-7-.1-10.42-.34a157.35,157.35,0,0,1-146.93-157c0-2.79.05-5.52.19-8.26h-.19V649.26H1154.92a208.34,208.34,0,0,1,1.87-96.42h871.73A207.15,207.15,0,0,1,2035.14,604.94Z" transform="translate(-1150.16 -486.91)" />
      </svg>